<svg width="114" height="31" viewBox="0 0 114 31" fill="none" xmlns="http://www.w3.org/2000/svg">
<path d="M39.1454 24L32.4974 11.256H36.9374L41.4734 21.168L40.3694 21.264L45.0254 11.256H49.3934L42.5054 24H39.1454ZM50.8095 24L49.9215 21.648L54.9375 17.136C55.3695 16.736 55.8175 16.32 56.2815 15.888C56.7455 15.456 57.1615 15.016 57.5295 14.568C57.9135 14.12 58.2255 13.688 58.4655 13.272C58.7055 12.856 58.8255 12.472 58.8255 12.12C58.8255 11.768 58.7455 11.464 58.5855 11.208C58.4255 10.952 58.1855 10.76 57.8655 10.632C57.5615 10.488 57.1775 10.416 56.7135 10.416C56.2495 10.416 55.7855 10.504 55.3215 10.68C54.8735 10.84 54.4335 11.12 54.0015 11.52C53.5855 11.904 53.1855 12.416 52.8015 13.056L49.7775 11.304C50.2895 10.456 50.9055 9.696 51.6255 9.024C52.3455 8.336 53.1775 7.8 54.1215 7.416C55.0655 7.016 56.0815 6.816 57.1695 6.816C58.2895 6.816 59.2815 7.024 60.1455 7.44C61.0095 7.856 61.6815 8.424 62.1615 9.144C62.6575 9.864 62.9055 10.688 62.9055 11.616C62.9055 12.112 62.8175 12.608 62.6415 13.104C62.4815 13.584 62.2495 14.064 61.9455 14.544C61.6415 15.008 61.2895 15.472 60.8895 15.936C60.4895 16.384 60.0575 16.832 59.5935 17.28C59.1455 17.712 58.6895 18.144 58.2255 18.576L53.8575 22.464L53.6895 20.4H63.6495V24H50.8095ZM70.196 20.784L69.068 17.904L77.084 11.256H82.22L70.196 20.784ZM66.788 24V6.24H70.46V24H66.788ZM77.492 24L71.732 17.16L74.324 15.048L82.052 24H77.492ZM90.2817 24.216C88.8737 24.216 87.6497 23.936 86.6097 23.376C85.5857 22.8 84.7857 22.016 84.2097 21.024C83.6337 20.032 83.3457 18.904 83.3457 17.64C83.3457 16.344 83.6417 15.2 84.2337 14.208C84.8257 13.2 85.6417 12.416 86.6817 11.856C87.7217 11.28 88.9457 10.992 90.3537 10.992C91.1537 10.992 91.8897 11.088 92.5617 11.28C93.2497 11.472 93.8497 11.728 94.3617 12.048C94.8897 12.368 95.3137 12.72 95.6337 13.104C95.9537 13.472 96.1537 13.84 96.2337 14.208L95.3217 14.28V11.256H99.1377V24H95.2497V20.592L96.0417 20.808C95.9937 21.224 95.8017 21.632 95.4657 22.032C95.1457 22.432 94.7217 22.8 94.1937 23.136C93.6817 23.456 93.0897 23.72 92.4177 23.928C91.7457 24.12 91.0337 24.216 90.2817 24.216ZM91.2657 20.976C92.1137 20.976 92.8417 20.84 93.4497 20.568C94.0577 20.28 94.5297 19.888 94.8657 19.392C95.2017 18.88 95.3697 18.296 95.3697 17.64C95.3697 16.952 95.2017 16.36 94.8657 15.864C94.5297 15.368 94.0577 14.976 93.4497 14.688C92.8417 14.4 92.1137 14.256 91.2657 14.256C90.4497 14.256 89.7297 14.4 89.1057 14.688C88.4977 14.976 88.0177 15.368 87.6657 15.864C87.3297 16.36 87.1617 16.952 87.1617 17.64C87.1617 18.296 87.3297 18.88 87.6657 19.392C88.0177 19.888 88.4977 20.28 89.1057 20.568C89.7297 20.84 90.4497 20.976 91.2657 20.976ZM104.8 24V11.256H108.64V24H104.8ZM106.72 8.568C106 8.568 105.432 8.4 105.016 8.064C104.616 7.712 104.416 7.216 104.416 6.576C104.416 6 104.624 5.528 105.04 5.16C105.456 4.792 106.016 4.608 106.72 4.608C107.44 4.608 108 4.784 108.4 5.136C108.8 5.472 109 5.952 109 6.576C109 7.168 108.792 7.648 108.376 8.016C107.976 8.384 107.424 8.568 106.72 8.568Z" fill="#01033F"/>
<path d="M20.4369 0.862749C17.5072 3.46226 12.67 6.08601 9.66058 7.26719C9.46641 7.3434 9.33691 7.52955 9.33691 7.73814V16.9303C9.33691 17.2322 9.60195 17.466 9.89825 17.408C14.144 16.5779 18.973 12.689 21.1242 11.1504C21.2571 11.0554 21.3369 10.9026 21.3369 10.7393V1.2475C21.3369 0.796482 20.7743 0.563408 20.4369 0.862749Z" fill="#2C3FF5"/>
<path d="M16.3861 30.1149C14.4492 28.5624 11.5454 27.3762 9.65167 26.6247C9.46104 26.5491 9.33691 26.3653 9.33691 26.1602V19.5741C9.33691 19.2706 9.60525 19.0367 9.90257 19.0973C12.6458 19.6564 15.7045 21.4863 17.1341 22.5051C17.2632 22.5971 17.3369 22.7458 17.3369 22.9044V29.6991C17.3369 30.1571 16.7434 30.4013 16.3861 30.1149Z" fill="#4FB0F9"/>
<path d="M1.28776 11.8851C3.22462 13.4376 6.12838 14.6238 8.02216 15.3753C8.21279 15.4509 8.33691 15.6347 8.33691 15.8398V22.4259C8.33691 22.7294 8.06858 22.9633 7.77126 22.9027C5.02807 22.3436 1.96929 20.5137 0.539751 19.4949C0.410585 19.4029 0.336914 19.2542 0.336914 19.0956V12.3009C0.336914 11.8429 0.930413 11.5987 1.28776 11.8851Z" fill="#3777F6"/>
</svg>
