<svg width="190" height="44" viewBox="0 0 190 44" fill="none" xmlns="http://www.w3.org/2000/svg">
<path d="M45.2399 30.8564L53.0891 14.1051H56.8223L64.6236 30.8564H60.4357L55.9847 21.3321C55.8411 20.9812 55.6895 20.6381 55.53 20.3031C55.3864 19.9681 55.2508 19.641 55.1232 19.322C55.0115 19.0029 54.8998 18.6838 54.7882 18.3648C54.6765 18.0297 54.5728 17.7027 54.4771 17.3836L55.3386 17.3597C55.2269 17.7107 55.1152 18.0537 55.0035 18.3887C54.8919 18.7237 54.7642 19.0508 54.6206 19.3698C54.493 19.6889 54.3574 20.016 54.2138 20.351C54.0703 20.6701 53.9187 21.0051 53.7592 21.3561L49.332 30.8564H45.2399ZM48.9013 27.8173L50.2175 24.7542H59.5982L60.34 27.8173H48.9013ZM69.5603 30.8564V27.3147H73.5807V17.6468H69.5603V14.1051H81.717V17.6468H77.6488V27.3147H81.717V30.8564H69.5603ZM100.262 30.8564V14.1051H108.661C110.145 14.1051 111.469 14.3285 112.634 14.7752C113.798 15.2059 114.788 15.8042 115.601 16.57C116.415 17.3357 117.037 18.2292 117.468 19.2502C117.899 20.2553 118.114 21.3321 118.114 22.4808C118.114 23.6454 117.899 24.7303 117.468 25.7353C117.037 26.7404 116.415 27.6258 115.601 28.3916C114.788 29.1574 113.79 29.7636 112.61 30.2103C111.445 30.6411 110.129 30.8564 108.661 30.8564H100.262ZM104.33 28.0805L103.78 27.2669H108.542C109.451 27.2669 110.241 27.1393 110.911 26.884C111.581 26.6287 112.131 26.2857 112.562 25.855C113.009 25.4083 113.344 24.8978 113.567 24.3234C113.79 23.7332 113.902 23.1189 113.902 22.4808C113.902 21.8426 113.79 21.2364 113.567 20.6621C113.344 20.0877 113.009 19.5852 112.562 19.1545C112.131 18.7078 111.581 18.3568 110.911 18.1015C110.241 17.8303 109.451 17.6947 108.542 17.6947H103.708L104.33 16.9289V28.0805ZM124.578 30.8564V18.1494H128.24L128.407 22.744L127.307 22.5287C127.562 21.6672 127.969 20.8854 128.527 20.1835C129.085 19.4815 129.747 18.9231 130.513 18.5083C131.279 18.0935 132.085 17.8861 132.93 17.8861C133.425 17.8861 133.911 17.942 134.39 18.0537C134.869 18.1494 135.267 18.285 135.586 18.4605L134.557 22.6004C134.27 22.393 133.871 22.2335 133.361 22.1218C132.866 22.0102 132.372 21.9543 131.877 21.9543C131.335 21.9543 130.84 22.0421 130.394 22.2176C129.963 22.3771 129.596 22.6084 129.293 22.9115C129.006 23.1987 128.79 23.5258 128.647 23.8927C128.503 24.2437 128.431 24.6186 128.431 25.0174V30.8564H124.578ZM141.97 30.8564V18.1494H145.799V30.8564H141.97ZM143.884 15.4692C143.166 15.4692 142.6 15.3017 142.185 14.9666C141.786 14.6157 141.587 14.1211 141.587 13.4829C141.587 12.9086 141.794 12.438 142.209 12.0711C142.624 11.7041 143.182 11.5207 143.884 11.5207C144.602 11.5207 145.161 11.6961 145.559 12.0471C145.958 12.3821 146.158 12.8608 146.158 13.4829C146.158 14.0732 145.95 14.5518 145.536 14.9188C145.137 15.2857 144.586 15.4692 143.884 15.4692ZM158.307 30.8564L151.678 18.1494H156.105L160.628 28.0327L159.527 28.1284L164.17 18.1494H168.525L161.657 30.8564H158.307ZM179.928 31.0957C178.269 31.0957 176.809 30.8166 175.549 30.2582C174.305 29.6839 173.339 28.9021 172.653 27.913C171.967 26.9239 171.624 25.8071 171.624 24.5627C171.624 23.5417 171.824 22.6244 172.223 21.8107C172.637 20.9812 173.204 20.2792 173.922 19.7049C174.64 19.1305 175.477 18.6838 176.434 18.3648C177.392 18.0457 178.397 17.8861 179.45 17.8861C180.519 17.8861 181.5 18.0457 182.393 18.3648C183.302 18.6838 184.092 19.1305 184.762 19.7049C185.448 20.2632 185.975 20.9333 186.342 21.715C186.709 22.4967 186.876 23.3582 186.844 24.2995L186.82 25.4242H174.281L173.73 23.103H183.709L183.302 23.6295V23.1508C183.239 22.7201 183.031 22.3452 182.68 22.0261C182.329 21.707 181.875 21.4598 181.316 21.2843C180.774 21.0928 180.168 20.9971 179.498 20.9971C178.7 20.9971 177.974 21.1088 177.32 21.3321C176.682 21.5555 176.171 21.9144 175.788 22.409C175.405 22.8876 175.214 23.5098 175.214 24.2756C175.214 24.9616 175.429 25.5838 175.86 26.1421C176.291 26.6846 176.905 27.1073 177.703 27.4105C178.5 27.7136 179.434 27.8651 180.503 27.8651C181.54 27.8651 182.385 27.7455 183.039 27.5062C183.693 27.2669 184.22 27.0276 184.619 26.7883L186.294 29.2531C185.735 29.6519 185.113 29.987 184.427 30.2582C183.741 30.5294 183.015 30.7368 182.25 30.8804C181.5 31.024 180.726 31.0957 179.928 31.0957Z" fill="black"/>
<path d="M29.9702 8.66933C27.3468 11.0387 22.8695 13.4551 20.1295 14.5165C19.9838 14.573 19.8875 14.7121 19.8875 14.8683V23.1867C19.8875 23.4123 20.0857 23.5871 20.3077 23.5462C24.1518 22.8376 28.5534 19.2989 30.4784 17.9344C30.5784 17.8635 30.6375 17.7497 30.6375 17.6271V8.95396C30.6375 8.6172 30.2201 8.44361 29.9702 8.66933Z" fill="#E43636"/>
<path d="M26.1657 35.2837C24.4618 33.831 21.8124 32.7267 20.1199 32.0383C19.9789 31.9809 19.8875 31.8443 19.8875 31.6921V25.6559C19.8875 25.4285 20.0886 25.2533 20.3116 25.298C22.7441 25.7849 25.4791 27.4694 26.7268 28.3863C26.8211 28.4556 26.875 28.5656 26.875 28.6826V34.9837C26.875 35.3285 26.4281 35.5074 26.1657 35.2837Z" fill="#E43636" fill-opacity="0.2"/>
<path d="M12.5342 18.3913C14.2382 19.844 16.8875 20.9484 18.5801 21.6368C18.721 21.6941 18.8125 21.8307 18.8125 21.9829V28.0191C18.8125 28.2466 18.6113 28.4217 18.3883 28.3771C15.9559 27.8901 13.2209 26.2057 11.9731 25.2887C11.8788 25.2194 11.825 25.1095 11.825 24.9925V18.6913C11.825 18.3465 12.2718 18.1676 12.5342 18.3913Z" fill="#E43636" fill-opacity="0.5"/>
</svg>
