<svg width="22" height="18" viewBox="0 0 22 18" fill="none" xmlns="http://www.w3.org/2000/svg">
<g clip-path="url(#clip0_151_583)">
<path d="M20.6165 16.838C20.6622 16.8384 20.7076 16.8296 20.7498 16.8119C20.7919 16.7943 20.8299 16.7683 20.8615 16.7355C20.8931 16.7027 20.9175 16.6639 20.9333 16.6213C20.9491 16.5788 20.9558 16.5335 20.9532 16.4883C20.9532 16.2403 20.8021 16.1218 20.4921 16.1218H19.9912V17.4202H20.1796V16.8542H20.4111L20.4164 16.8611L20.7757 17.4202H20.9772L20.5906 16.8415L20.6165 16.838ZM20.3986 16.7079H20.1802V16.269H20.457C20.6001 16.269 20.7631 16.2921 20.7631 16.4776C20.7631 16.6908 20.5981 16.7079 20.3975 16.7079" fill="#01033F"/>
<path d="M15.7021 15.2108H13.0306V11.0684C13.0306 10.0805 13.0128 8.80892 11.6412 8.80892C10.2498 8.80892 10.0369 9.88518 10.0369 10.9964V15.2106H7.36537V6.69194H9.93002V7.8561H9.96592C10.2226 7.42158 10.5935 7.06413 11.0391 6.82181C11.4847 6.57949 11.9883 6.46137 12.4963 6.48005C15.204 6.48005 15.7033 8.24351 15.7033 10.5377L15.7021 15.2108ZM4.35103 5.5275C4.04441 5.52755 3.74465 5.43758 3.48967 5.26895C3.23469 5.10033 3.03596 4.86062 2.91857 4.58015C2.80118 4.29968 2.77041 3.99104 2.83018 3.69326C2.88994 3.39548 3.03755 3.12194 3.25432 2.90722C3.4711 2.6925 3.74731 2.54625 4.04803 2.48697C4.34875 2.42769 4.66047 2.45803 4.94377 2.57416C5.22707 2.6903 5.46923 2.887 5.63963 3.13941C5.81002 3.39181 5.90101 3.68858 5.90106 3.99219C5.9011 4.19377 5.86103 4.39339 5.78315 4.57964C5.70527 4.76589 5.59112 4.93514 5.44719 5.0777C5.30325 5.22027 5.13236 5.33337 4.94428 5.41055C4.7562 5.48772 4.55462 5.52746 4.35103 5.5275ZM5.68678 15.2108H3.01249V6.69194H5.68678V15.2108ZM17.034 0.000972143H1.67007C1.32135 -0.00292438 0.985318 0.13042 0.735842 0.371704C0.486367 0.612987 0.343856 0.942469 0.3396 1.28775V16.5635C0.34371 16.9089 0.486137 17.2386 0.735604 17.4802C0.985072 17.7217 1.32118 17.8553 1.67007 17.8516H17.034C17.3836 17.856 17.7206 17.7227 17.9711 17.4812C18.2215 17.2397 18.3649 16.9096 18.3698 16.5635V1.28665C18.3648 0.940682 18.2213 0.610825 17.9708 0.369548C17.7204 0.12827 17.3834 -0.00469332 17.034 -0.000130467" fill="#01033F"/>
<path d="M20.4215 15.5435C20.0965 15.5466 19.7859 15.677 19.5577 15.9062C19.3295 16.1354 19.2023 16.4448 19.2039 16.7666C19.2054 17.0884 19.3357 17.3966 19.5661 17.6236C19.7965 17.8506 20.1083 17.9781 20.4333 17.9781C20.7584 17.9781 21.0702 17.8506 21.3006 17.6236C21.531 17.3966 21.6612 17.0884 21.6628 16.7666C21.6643 16.4448 21.5371 16.1354 21.3089 15.9062C21.0807 15.677 20.7702 15.5466 20.4451 15.5435H20.4215ZM20.4215 17.8387C20.2083 17.8422 19.9988 17.7831 19.8196 17.6687C19.6404 17.5544 19.4994 17.3899 19.4146 17.1963C19.3297 17.0026 19.3047 16.7883 19.3428 16.5806C19.381 16.3729 19.4804 16.181 19.6287 16.0293C19.7769 15.8775 19.9672 15.7727 20.1757 15.7281C20.3841 15.6835 20.6012 15.701 20.7995 15.7786C20.9978 15.8561 21.1684 15.9901 21.2898 16.1637C21.4112 16.3372 21.4779 16.5425 21.4815 16.7536C21.4815 16.7597 21.4815 16.7655 21.4815 16.7715C21.4874 17.0485 21.3821 17.3164 21.1886 17.5164C20.9951 17.7164 20.7293 17.8322 20.4496 17.8382H20.4218" fill="#01033F"/>
</g>
<defs>
<clipPath id="clip0_151_583">
<rect width="21.3231" height="18" fill="white" transform="translate(0.339844)"/>
</clipPath>
</defs>
</svg>
