<svg width="122" height="32" viewBox="0 0 122 32" fill="none" xmlns="http://www.w3.org/2000/svg">
<g clip-path="url(#clip0_13_24)">
<path d="M38.328 24.5L31.68 11.756H36.12L40.656 21.668L39.552 21.764L44.208 11.756H48.576L41.688 24.5H38.328ZM49.9921 24.5L49.1041 22.148L54.1201 17.636C54.5521 17.236 55.0001 16.82 55.4641 16.388C55.9281 15.956 56.3441 15.516 56.7121 15.068C57.0961 14.62 57.4081 14.188 57.6481 13.772C57.8881 13.356 58.0081 12.972 58.0081 12.62C58.0081 12.268 57.9281 11.964 57.7681 11.708C57.6081 11.452 57.3681 11.26 57.0481 11.132C56.7441 10.988 56.3601 10.916 55.8961 10.916C55.4321 10.916 54.9681 11.004 54.5041 11.18C54.0561 11.34 53.6161 11.62 53.1841 12.02C52.7681 12.404 52.3681 12.916 51.9841 13.556L48.9601 11.804C49.4721 10.956 50.0881 10.196 50.8081 9.524C51.5281 8.836 52.3601 8.3 53.3041 7.916C54.2481 7.516 55.2641 7.316 56.3521 7.316C57.4721 7.316 58.4641 7.524 59.3281 7.94C60.1921 8.356 60.8641 8.924 61.3441 9.644C61.8401 10.364 62.0881 11.188 62.0881 12.116C62.0881 12.612 62.0001 13.108 61.8241 13.604C61.6641 14.084 61.4321 14.564 61.1281 15.044C60.8241 15.508 60.4721 15.972 60.0721 16.436C59.6721 16.884 59.2401 17.332 58.7761 17.78C58.3281 18.212 57.8721 18.644 57.4081 19.076L53.0401 22.964L52.8721 20.9H62.8321V24.5H49.9921ZM69.3786 21.284L68.2506 18.404L76.2666 11.756H81.4026L69.3786 21.284ZM65.9706 24.5V6.74H69.6426V24.5H65.9706ZM76.6746 24.5L70.9146 17.66L73.5066 15.548L81.2346 24.5H76.6746ZM86.6914 24.764C85.8114 24.764 85.1474 24.58 84.6994 24.212C84.2514 23.828 84.0274 23.3 84.0274 22.628C84.0274 22.052 84.2514 21.548 84.6994 21.116C85.1634 20.684 85.8274 20.468 86.6914 20.468C87.5874 20.468 88.2594 20.66 88.7074 21.044C89.1554 21.428 89.3794 21.956 89.3794 22.628C89.3794 23.188 89.1474 23.684 88.6834 24.116C88.2354 24.548 87.5714 24.764 86.6914 24.764ZM99.1987 24.716C97.7907 24.716 96.5667 24.436 95.5267 23.876C94.5027 23.3 93.7027 22.516 93.1267 21.524C92.5507 20.532 92.2627 19.404 92.2627 18.14C92.2627 16.844 92.5587 15.7 93.1507 14.708C93.7427 13.7 94.5587 12.916 95.5987 12.356C96.6387 11.78 97.8627 11.492 99.2707 11.492C100.071 11.492 100.807 11.588 101.479 11.78C102.167 11.972 102.767 12.228 103.279 12.548C103.807 12.868 104.231 13.22 104.551 13.604C104.871 13.972 105.071 14.34 105.151 14.708L104.239 14.78V11.756H108.055V24.5H104.167V21.092L104.959 21.308C104.911 21.724 104.719 22.132 104.383 22.532C104.063 22.932 103.639 23.3 103.111 23.636C102.599 23.956 102.007 24.22 101.335 24.428C100.663 24.62 99.9507 24.716 99.1987 24.716ZM100.183 21.476C101.031 21.476 101.759 21.34 102.367 21.068C102.975 20.78 103.447 20.388 103.783 19.892C104.119 19.38 104.287 18.796 104.287 18.14C104.287 17.452 104.119 16.86 103.783 16.364C103.447 15.868 102.975 15.476 102.367 15.188C101.759 14.9 101.031 14.756 100.183 14.756C99.3667 14.756 98.6467 14.9 98.0227 15.188C97.4147 15.476 96.9347 15.868 96.5827 16.364C96.2467 16.86 96.0787 17.452 96.0787 18.14C96.0787 18.796 96.2467 19.38 96.5827 19.892C96.9347 20.388 97.4147 20.78 98.0227 21.068C98.6467 21.34 99.3667 21.476 100.183 21.476ZM113.717 24.5V11.756H117.557V24.5H113.717ZM115.637 9.068C114.917 9.068 114.349 8.9 113.933 8.564C113.533 8.212 113.333 7.716 113.333 7.076C113.333 6.5 113.541 6.028 113.957 5.66C114.373 5.292 114.933 5.108 115.637 5.108C116.357 5.108 116.917 5.284 117.317 5.636C117.717 5.972 117.917 6.452 117.917 7.076C117.917 7.668 117.709 8.148 117.293 8.516C116.893 8.884 116.341 9.068 115.637 9.068Z" fill="#01033F"/>
<path d="M20.1 1.36275C17.1703 3.96226 12.333 6.58601 9.32367 7.76719C9.1295 7.8434 9 8.02955 9 8.23814V17.4303C9 17.7322 9.26503 17.966 9.56134 17.908C13.8071 17.0779 18.636 13.189 20.7873 11.6504C20.9202 11.5554 21 11.4026 21 11.2393V1.7475C21 1.29648 20.4374 1.06341 20.1 1.36275Z" fill="#2C3FF5"/>
<path d="M16.0491 30.6149C14.1123 29.0624 11.2085 27.8762 9.31475 27.1247C9.12412 27.0491 9 26.8653 9 26.6602V20.0741C9 19.7706 9.26834 19.5367 9.56565 19.5973C12.3088 20.1564 15.3676 21.9863 16.7972 23.0051C16.9263 23.0971 17 23.2458 17 23.4044V30.1991C17 30.6571 16.4065 30.9013 16.0491 30.6149Z" fill="#4FB0F9"/>
<path d="M0.95085 12.3851C2.8877 13.9376 5.79147 15.1238 7.68525 15.8753C7.87588 15.9509 8 16.1347 8 16.3398V22.9259C8 23.2294 7.73166 23.4633 7.43435 23.4027C4.69116 22.8436 1.63237 21.0137 0.202837 19.9949C0.0736709 19.9029 0 19.7542 0 19.5956V12.8009C0 12.3429 0.593499 12.0987 0.95085 12.3851Z" fill="#3777F6"/>
</g>
<defs>
<clipPath id="clip0_13_24">
<rect width="122" height="31" fill="white" transform="translate(0 0.5)"/>
</clipPath>
</defs>
</svg>
