<svg width="22" height="16" viewBox="0 0 22 16" fill="none" xmlns="http://www.w3.org/2000/svg">
<g clip-path="url(#clip0_151_577)">
<path fill-rule="evenodd" clip-rule="evenodd" d="M19.0472 1.07618C19.9497 1.31811 20.6604 2.03096 20.9016 2.93621C21.34 4.57691 21.34 8.00013 21.34 8.00013C21.34 8.00013 21.34 11.4233 20.9016 13.0642C20.6604 13.9693 19.9497 14.6822 19.0472 14.9242C17.4115 15.3638 10.8523 15.3638 10.8523 15.3638C10.8523 15.3638 4.29322 15.3638 2.65747 14.9242C1.75502 14.6822 1.04424 13.9693 0.803048 13.0642C0.364746 11.4233 0.364746 8.00013 0.364746 8.00013C0.364746 8.00013 0.364746 4.57691 0.803048 2.93621C1.04424 2.03096 1.75502 1.31811 2.65747 1.07618C4.29322 0.636497 10.8523 0.636497 10.8523 0.636497C10.8523 0.636497 17.4115 0.636497 19.0472 1.07618ZM14.1893 8.00004L8.70715 11.1079V4.89187L14.1893 8.00004Z" fill="#01033F"/>
</g>
<defs>
<clipPath id="clip0_151_577">
<rect width="20.9752" height="14.7273" fill="white" transform="translate(0.364746 0.636475)"/>
</clipPath>
</defs>
</svg>
